<svg xmlns="http://www.w3.org/2000/svg" style="display: none">

  <symbol id="logo" viewBox="0 0 512 101.87">
    <path d="M28.186,64.357l-7.516,35.567H0L21.072,1.275h45.097c5.279,0,9.775.906,13.489,2.718,3.713,1.812,6.531,4.429,8.456,7.851,1.923,3.423,2.886,7.506,2.886,12.247,0,2.864-.314,5.794-.94,8.791-.939,4.117-2.797,8.556-5.57,13.321-2.775,4.765-6.89,8.982-12.348,12.65-5.459,3.669-12.214,5.503-20.267,5.503h-23.689ZM31.809,47.311h19.059c6.621,0,11.184-1.584,13.69-4.753,2.505-3.169,4.183-6.718,5.033-10.646.268-1.472.403-2.789.403-3.95,0-3.392-1.253-5.847-3.758-7.365-2.506-1.517-6.487-2.277-11.945-2.277h-16.307l-6.174,28.991Z"/><path d="M125.898,78.479h19.767c-2.013,4.123-4.473,7.708-7.38,10.755-2.908,3.047-6.05,5.501-9.427,7.36-3.376,1.86-6.798,3.204-10.264,4.033-3.467.828-6.788,1.244-9.964,1.244-19.725,0-29.586-8.813-29.586-26.441,0-4.115.559-8.634,1.678-13.556.715-3.311,1.867-6.879,3.456-10.704,1.588-3.825,4.004-7.773,7.248-11.845,3.243-4.07,7.55-7.493,12.918-10.267,5.369-2.773,11.788-4.161,19.26-4.161,4.698,0,9.07.772,13.12,2.315,4.049,1.543,7.426,4.328,10.133,8.355,2.706,4.026,4.06,9.44,4.06,16.24,0,4.206-.494,8.657-1.482,13.355l-.875,3.422h-50.121c-.179,1.604-.268,3.21-.268,4.814,0,3.655.971,6.73,2.913,9.226,1.942,2.496,5.548,3.744,10.817,3.744,2.857,0,5.604-.702,8.238-2.106,2.634-1.404,4.554-3.332,5.76-5.784ZM101.727,56.102h29.796c.089-.757.134-1.759.134-3.006,0-4.276-1.139-7.406-3.415-9.388-2.276-1.982-5.044-2.974-8.303-2.974-8.794,0-14.865,5.123-18.212,15.368Z"/><path d="M167.753,76.839l-4.966,23.085h-19.26L164.532,1.275h19.26l-11.408,53.284,30.131-27.783h23.622l-31.876,28.319,17.046,44.828h-23.085l-10.871-31.34-9.597,8.254Z"/><path d="M352.319,49.056h-18.858c0-3.087-.627-5.458-1.879-7.114-1.253-1.654-4.251-2.483-8.993-2.483-7.919,0-12.393,2.372-13.421,7.114,0,2.238,2.471,4.071,7.415,5.503,4.943,1.433,9.786,2.73,14.529,3.892,4.742,1.164,8.936,2.986,12.583,5.469,3.646,2.483,5.47,6.14,5.47,10.972,0,1.03-.202,2.461-.604,4.295-1.387,6.577-4.228,11.722-8.523,15.435-4.295,3.714-8.97,6.264-14.026,7.65-5.056,1.386-9.999,2.08-14.831,2.08-8.59,0-15.794-1.589-21.609-4.765-5.816-3.176-8.724-8.322-8.724-15.435,0-1.074.179-2.774.537-5.1h19.797c-.179,1.074-.268,1.902-.268,2.483,0,5.503,4.674,8.254,14.026,8.254,4.429,0,7.739-.805,9.932-2.416,2.192-1.61,3.467-3.332,3.826-5.167,0-2.416-1.197-4.048-3.59-4.899-2.394-.849-7.204-2.158-14.428-3.926-7.226-1.767-12.606-3.881-16.14-6.342-3.534-2.46-5.301-6.061-5.301-10.804,0-.894.178-2.371.537-4.429.939-4.116,2.728-7.997,5.369-11.643,2.639-3.646,6.442-6.688,11.408-9.127,4.966-2.438,10.961-3.657,17.985-3.657,18.7,0,28.051,6.555,28.051,19.663,0,1.924-.09,3.422-.268,4.496Z"/><path d="M425.695,63.35c-1.342,6.353-3.535,11.979-6.577,16.878-3.043,4.899-6.634,8.925-10.771,12.079-4.139,3.154-8.602,5.537-13.388,7.147-4.788,1.611-9.754,2.416-14.898,2.416-5.637,0-10.771-1.04-15.401-3.12-4.63-2.08-8.277-5.201-10.938-9.362-2.662-4.161-3.993-9.35-3.993-15.569,0-3.087.403-6.577,1.208-10.469,1.386-6.442,3.567-12.079,6.543-16.911,2.975-4.832,6.554-8.847,10.737-12.046,4.183-3.198,8.668-5.58,13.455-7.147,4.787-1.565,9.708-2.349,14.764-2.349,5.726,0,10.905,1.03,15.536,3.087,4.63,2.058,8.265,5.201,10.905,9.429,2.64,4.228,3.96,9.452,3.96,15.67,0,3.624-.381,7.047-1.141,10.267ZM405.898,63.384c.581-2.367.873-4.981.873-7.84,0-9.604-4.587-14.406-13.757-14.406-6.622,0-11.666,2.178-15.133,6.534-3.468,4.356-5.85,9.593-7.147,15.713-.627,2.904-.939,5.607-.939,8.108,0,9.426,4.585,14.139,13.757,14.139,6.621,0,11.677-2.2,15.166-6.6,3.49-4.4,5.883-9.615,7.181-15.646Z"/><path d="M455.921,40.533l-12.616,59.391h-19.26l12.616-59.391h-10.536l2.886-13.757h10.536l1.275-5.906c1.61-7.292,4.608-12.593,8.992-15.905,4.384-3.311,10.044-4.966,16.979-4.966,4.339,0,7.583.09,9.731.268l-3.288,15.569h-5.369c-3.087,0-5.067.493-5.939,1.477-.872.985-1.689,3.177-2.449,6.577l-.671,2.886h12.549l-2.886,13.757h-12.549Z"/><path d="M504.282,7.046l-4.228,19.73h11.945l-2.886,13.757h-11.945l-8.523,39.728c-.268,1.119-.403,2.08-.403,2.886,0,1.164.492,1.958,1.476,2.383.983.425,2.863.637,5.637.637.715,0,2.102-.089,4.161-.268l-3.154,14.562c-4.027.178-7.07.268-9.127.268h-2.416c-4.072,0-7.382-.403-9.932-1.208s-4.352-1.968-5.402-3.49c-1.051-1.52-1.622-3.422-1.711-5.704,0-1.476.223-3.265.671-5.369l9.462-44.426h-9.865l2.886-13.757h9.865l4.295-19.73h19.193Z"/><path d="M268.623,76.468l16.443-9.621c.312-1.143.605-2.302.857-3.496.76-3.221,1.141-6.643,1.141-10.267,0-6.218-1.32-11.442-3.96-15.67-2.641-4.228-6.275-7.37-10.905-9.429-4.63-2.057-9.809-3.087-15.536-3.087-5.056,0-9.977.783-14.764,2.349-4.788,1.567-9.273,3.949-13.455,7.147-4.184,3.199-7.763,7.214-10.737,12.046-2.976,4.832-5.157,10.469-6.543,16.911-.805,3.892-1.208,7.382-1.208,10.469,0,6.219,1.331,11.408,3.993,15.569,2.661,4.16,6.308,7.281,10.938,9.362,4.631,2.08,9.764,3.12,15.401,3.12,5.144,0,10.11-.805,14.898-2.416,4.786-1.61,9.25-3.993,13.388-7.147,4.138-3.154,7.728-7.18,10.772-12.079.751-1.209,1.448-2.463,2.096-3.76h-12.819ZM266.125,63.384c-1.299,6.031-3.691,11.247-7.181,15.646-3.49,4.4-8.546,6.6-15.167,6.6-9.172,0-13.757-4.712-13.757-14.139,0-2.501.312-5.203.939-8.108,1.297-6.12,3.679-11.357,7.147-15.713,3.467-4.356,8.511-6.534,15.133-6.534,9.171,0,13.758,4.802,13.758,14.406,0,2.86-.292,5.473-.873,7.84Z" />
  </symbol>

  <symbol id="focus-studios" viewBox="0 0 512 136.262">
    <path d="M512,128.995c0,4.007-3.26,7.267-7.267,7.267h0s-14.803,0-14.803,0h0s0,0,0,0c-1.288,0-2.333-1.044-2.333-2.333s1.044-2.333,2.333-2.333c0,0,0,0,0,0h14.803c1.434,0,2.601-1.167,2.601-2.602s-1.167-2.602-2.602-2.602h0s-9.887,0-9.887,0h0c-3.999-.011-7.249-3.266-7.249-7.268s3.255-7.261,7.258-7.266h0s14.803,0,14.803,0h0s.006,0,.009,0c1.288,0,2.333,1.044,2.333,2.333s-1.044,2.333-2.333,2.333c-.019,0-.038-.005-.057-.006h-14.746v.005c-1.435,0-2.602,1.167-2.602,2.602s1.167,2.602,2.602,2.602h0s9.869,0,9.869,0h0c4.007,0,7.268,3.26,7.268,7.267ZM430.734,124.06c0-6.728-5.473-12.202-12.201-12.202s-12.202,5.474-12.202,12.202,5.473,12.202,12.202,12.202,12.201-5.474,12.201-12.202ZM426.069,124.06c0,4.156-3.381,7.536-7.536,7.536s-7.537-3.381-7.537-7.536,3.381-7.536,7.537-7.536,7.536,3.381,7.536,7.536ZM339.598,114.186c-.003-1.286-1.046-2.327-2.332-2.327s-2.329,1.042-2.332,2.327h0v19.738h0s0,.003,0,.005c0,1.288,1.044,2.333,2.333,2.333s2.333-1.044,2.333-2.333c0-.002,0-.003,0-.005h0v-19.738h0ZM256,111.859h-9.869c-1.288,0-2.333,1.044-2.333,2.333s1.044,2.333,2.333,2.333h9.869c4.155,0,7.536,3.38,7.536,7.536s-3.381,7.536-7.536,7.537h0s-9.869,0-9.869,0h0c-1.288,0-2.333,1.044-2.333,2.333s1.044,2.333,2.333,2.333h9.869c6.728,0,12.202-5.473,12.202-12.202s-5.473-12.201-12.202-12.201ZM186.937,124.062v-9.87h-.001c0-1.288-1.044-2.333-2.333-2.333s-2.333,1.044-2.333,2.333c0,.003,0,.005,0,.007v9.862h0c0,4.156-3.381,7.536-7.536,7.536s-7.536-3.381-7.536-7.536h0v-9.862s0-.005,0-.007c0-1.288-1.044-2.333-2.333-2.333s-2.333,1.044-2.333,2.333h0s-.001,0-.001,0v9.87h.001c0,6.727,5.474,12.201,12.201,12.201s12.201-5.473,12.202-12.201h.001ZM105.669,114.192c0-1.288-1.044-2.333-2.333-2.333h-19.738c-1.288,0-2.333,1.044-2.333,2.333s1.044,2.333,2.333,2.333h0s7.452,0,7.452,0v17.405h0c0,1.288,1.044,2.333,2.333,2.333s2.333-1.044,2.333-2.333h0v-17.405h7.62c1.288,0,2.333-1.044,2.333-2.333ZM17.136,121.728h0s-9.869,0-9.869,0h0c-1.435,0-2.602-1.168-2.602-2.602s1.167-2.602,2.602-2.602v-.005h14.746c.019,0,.037.006.057.006,1.288,0,2.333-1.044,2.333-2.333s-1.044-2.333-2.333-2.333c-.003,0-.006,0-.009,0h0s-14.803,0-14.803,0h0c-4.003.005-7.258,3.263-7.258,7.267s3.25,7.256,7.249,7.266h0s9.887.001,9.887.001h0c1.435,0,2.602,1.167,2.602,2.602s-1.166,2.6-2.599,2.602H2.34s-.005,0-.007,0c-1.288,0-2.333,1.044-2.333,2.333s1.044,2.333,2.333,2.333c.003,0,.005,0,.007,0h0s14.803,0,14.803,0h0c4.004-.004,7.26-3.262,7.26-7.267s-3.26-7.267-7.267-7.267ZM512,41c0,22.644-18.356,41-41,41s-41-18.356-41-41S448.356,0,471,0s41,18.356,41,41ZM455.56,30.888c0-2.939,2.391-5.33,5.33-5.33v-.011h30.214c.04,0,.076.012.116.012,2.64,0,4.78-2.14,4.78-4.78s-2.14-4.78-4.78-4.78c-.006,0-.012.002-.019.002v-.002h-30.312s-.018,0-.018,0h0c-8.202.011-14.872,6.685-14.872,14.889s6.66,14.868,14.853,14.888v.003h20.257c2.939,0,5.331,2.391,5.331,5.331s-2.388,5.327-5.324,5.331h-30.317v.002c-.007,0-.013-.002-.02-.002-2.64,0-4.78,2.14-4.78,4.78s2.14,4.78,4.78,4.78c.007,0,.013-.002.02-.002v.002h30.31s0,0,0,0c0,0,0,0,.001,0h.019c8.201-.012,14.87-6.686,14.87-14.89s-6.68-14.889-14.89-14.889h0s-20.22,0-20.22,0h0c-2.939,0-5.33-2.392-5.33-5.331ZM404.5,41c0,22.644-18.356,41-41,41s-41-18.356-41-41S340.856,0,363.5,0s41,18.356,41,41ZM388.5,25.558c0-2.64-2.14-4.78-4.78-4.78s-4.78,2.14-4.78,4.78h0v20.221h0c0,8.514-6.927,15.441-15.441,15.441s-15.44-6.927-15.44-15.441h0v-20.221h0c0-2.64-2.14-4.78-4.78-4.78s-4.78,2.14-4.78,4.78h0v20.3h.002c.043,13.748,11.239,24.92,24.998,24.92s24.955-11.172,24.998-24.92h.002v-20.3h0ZM297,41c0,22.644-18.356,41-41,41s-41-18.356-41-41S233.356,0,256,0s41,18.356,41,41ZM238.309,41c0-8.514,6.927-15.44,15.441-15.44h0s20.221,0,20.221,0h0c2.64,0,4.78-2.14,4.78-4.78s-2.14-4.78-4.78-4.78h-20.3v.002c-13.748.043-24.92,11.239-24.92,24.998s11.172,24.955,24.92,24.998v.002h20.3c2.64,0,4.78-2.14,4.78-4.78s-2.14-4.78-4.78-4.78h-20.221c-8.514,0-15.441-6.927-15.441-15.441ZM148.282,25.559c-8.514,0-15.442,6.927-15.442,15.441s6.928,15.441,15.442,15.441,15.441-6.927,15.441-15.441-6.927-15.441-15.441-15.441ZM189.5,41c0,22.644-18.356,41-41,41s-41-18.356-41-41S125.856,0,148.5,0s41,18.356,41,41ZM173.281,41c0-13.785-11.215-25-25-25s-25,11.215-25,25,11.215,25,25,25,25-11.215,25-25ZM82,41c0,22.644-18.356,41-41,41S0,63.644,0,41,18.356,0,41,0s41,18.356,41,41ZM25.578,30.889c0-2.939,2.391-5.33,5.33-5.33v-.011h30.214c.04,0,.076.012.116.012,2.64,0,4.78-2.14,4.78-4.78s-2.14-4.78-4.78-4.78c-.006,0-.012.002-.019.002v-.002h-30.312s-.018,0-.018,0h0c-8.202.011-14.872,6.685-14.872,14.889,0,.112.014.22.017.332h-.017v30c0,2.64,2.14,4.78,4.78,4.78s4.78-2.14,4.78-4.78c0,0,0,0,0,0v-16.445c1.658.639,3.451,1.003,5.331,1.003v-.01h30.214c.04,0,.077.012.117.012,2.64,0,4.78-2.14,4.78-4.78s-2.14-4.78-4.78-4.78c-.006,0-.012.002-.019.002v-.002h-30.312c-2.939,0-5.33-2.393-5.33-5.332Z" />
</symbol>

  <symbol id="speaker" viewBox="0 0 256 512">
    <path d="M64,170c0-35.346,28.654-64,64-64s64,28.654,64,64-28.654,64-64,64-64-28.654-64-64ZM256,0v496h-16v16h-72v-16h-80v16H16v-16H0V0h256ZM240,16H16v464h224V16ZM192,36H64v40h128v-40ZM32,352c0-53.019,42.981-96,96-96s96,42.981,96,96-42.981,96-96,96-96-42.981-96-96ZM99.473,352c0,15.755,12.772,28.527,28.527,28.527s28.527-12.772,28.527-28.527-12.772-28.527-28.527-28.527-28.527,12.772-28.527,28.527Z" />
</symbol>

</svg>
