<svg xmlns="http://www.w3.org/2000/svg" viewBox="0 0 812 812" width="812" height="812" role="img" aria-label="Bitcoin QR">
  <title>Bitcoin QR</title>
  <rect width="812" height="812" fill="#fff"/>
  <path fill="#000" shape-rendering="crispEdges" d="
    M21 21 H207 V48 H21 Z M234 21 H313 V48 H234 Z M340 21 H367 V48 H340 Z M420 21 H500 V48 H420 Z M526 21 H553 V48 H526 Z M606 21 H792 V48 H606 Z M21 48 H48 V74 H21 Z M181 48 H207 V74 H181 Z
    M234 48 H313 V74 H234 Z M367 48 H420 V74 H367 Z M500 48 H579 V74 H500 Z M606 48 H632 V74 H606 Z M765 48 H792 V74 H765 Z M21 74 H48 V101 H21 Z M74 74 H154 V101 H74 Z M181 74 H207 V101 H181 Z
    M234 74 H260 V101 H234 Z M287 74 H340 V101 H287 Z M446 74 H500 V101 H446 Z M526 74 H553 V101 H526 Z M606 74 H632 V101 H606 Z M659 74 H739 V101 H659 Z M765 74 H792 V101 H765 Z M21 101 H48 V127 H21 Z
    M74 101 H154 V127 H74 Z M181 101 H207 V127 H181 Z M234 101 H287 V127 H234 Z M313 101 H340 V127 H313 Z M393 101 H473 V127 H393 Z M500 101 H526 V127 H500 Z M553 101 H579 V127 H553 Z M606 101 H632 V127 H606 Z
    M659 101 H739 V127 H659 Z M765 101 H792 V127 H765 Z M21 127 H48 V154 H21 Z M74 127 H154 V154 H74 Z M181 127 H207 V154 H181 Z M393 127 H420 V154 H393 Z M446 127 H553 V154 H446 Z M606 127 H632 V154 H606 Z
    M659 127 H739 V154 H659 Z M765 127 H792 V154 H765 Z M21 154 H48 V181 H21 Z M181 154 H207 V181 H181 Z M234 154 H260 V181 H234 Z M313 154 H420 V181 H313 Z M500 154 H553 V181 H500 Z M606 154 H632 V181 H606 Z
    M765 154 H792 V181 H765 Z M21 181 H207 V207 H21 Z M234 181 H260 V207 H234 Z M287 181 H313 V207 H287 Z M340 181 H367 V207 H340 Z M393 181 H420 V207 H393 Z M446 181 H473 V207 H446 Z M500 181 H526 V207 H500 Z
    M553 181 H579 V207 H553 Z M606 181 H792 V207 H606 Z M260 207 H287 V234 H260 Z M340 207 H367 V234 H340 Z M446 207 H526 V234 H446 Z M21 234 H74 V260 H21 Z M127 234 H207 V260 H127 Z M313 234 H340 V260 H313 Z
    M473 234 H579 V260 H473 Z M632 234 H659 V260 H632 Z M686 234 H792 V260 H686 Z M21 260 H48 V287 H21 Z M74 260 H101 V287 H74 Z M207 260 H313 V287 H207 Z M340 260 H473 V287 H340 Z M526 260 H553 V287 H526 Z
    M579 260 H606 V287 H579 Z M632 260 H739 V287 H632 Z M765 260 H792 V287 H765 Z M21 287 H48 V313 H21 Z M181 287 H234 V313 H181 Z M313 287 H473 V313 H313 Z M553 287 H579 V313 H553 Z M606 287 H739 V313 H606 Z
    M765 287 H792 V313 H765 Z M21 313 H48 V340 H21 Z M101 313 H127 V340 H101 Z M234 313 H260 V340 H234 Z M287 313 H340 V340 H287 Z M473 313 H526 V340 H473 Z M579 313 H712 V340 H579 Z M739 313 H792 V340 H739 Z
    M21 340 H48 V367 H21 Z M74 340 H127 V367 H74 Z M154 340 H207 V367 H154 Z M234 340 H260 V367 H234 Z M287 340 H313 V367 H287 Z M553 340 H606 V367 H553 Z M632 340 H659 V367 H632 Z M686 340 H712 V367 H686 Z
    M739 340 H765 V367 H739 Z M21 367 H101 V393 H21 Z M127 367 H181 V393 H127 Z M207 367 H234 V393 H207 Z M260 367 H287 V393 H260 Z M473 367 H526 V393 H473 Z M606 367 H686 V393 H606 Z M739 367 H792 V393 H739 Z
    M101 393 H154 V420 H101 Z M181 393 H207 V420 H181 Z M234 393 H260 V420 H234 Z M500 393 H526 V420 H500 Z M553 393 H579 V420 H553 Z M606 393 H739 V420 H606 Z M765 393 H792 V420 H765 Z M21 420 H101 V446 H21 Z
    M127 420 H154 V446 H127 Z M234 420 H260 V446 H234 Z M287 420 H313 V446 H287 Z M473 420 H500 V446 H473 Z M526 420 H553 V446 H526 Z M606 420 H712 V446 H606 Z M765 420 H792 V446 H765 Z M48 446 H207 V473 H48 Z
    M234 446 H260 V473 H234 Z M313 446 H340 V473 H313 Z M473 446 H500 V473 H473 Z M526 446 H553 V473 H526 Z M579 446 H606 V473 H579 Z M632 446 H659 V473 H632 Z M686 446 H712 V473 H686 Z M765 446 H792 V473 H765 Z
    M21 473 H48 V500 H21 Z M154 473 H181 V500 H154 Z M207 473 H287 V500 H207 Z M340 473 H393 V500 H340 Z M420 473 H526 V500 H420 Z M579 473 H712 V500 H579 Z M765 473 H792 V500 H765 Z M127 500 H154 V526 H127 Z
    M181 500 H234 V526 H181 Z M260 500 H287 V526 H260 Z M313 500 H367 V526 H313 Z M393 500 H446 V526 H393 Z M473 500 H500 V526 H473 Z M579 500 H606 V526 H579 Z M632 500 H712 V526 H632 Z M765 500 H792 V526 H765 Z
    M101 526 H127 V553 H101 Z M154 526 H181 V553 H154 Z M260 526 H287 V553 H260 Z M313 526 H340 V553 H313 Z M473 526 H526 V553 H473 Z M553 526 H659 V553 H553 Z M686 526 H712 V553 H686 Z M739 526 H765 V553 H739 Z
    M21 553 H101 V579 H21 Z M127 553 H154 V579 H127 Z M181 553 H234 V579 H181 Z M287 553 H313 V579 H287 Z M340 553 H393 V579 H340 Z M420 553 H446 V579 H420 Z M473 553 H712 V579 H473 Z M234 579 H260 V606 H234 Z
    M393 579 H500 V606 H393 Z M553 579 H579 V606 H553 Z M659 579 H686 V606 H659 Z M765 579 H792 V606 H765 Z M21 606 H207 V632 H21 Z M260 606 H287 V632 H260 Z M367 606 H393 V632 H367 Z M420 606 H446 V632 H420 Z
    M473 606 H500 V632 H473 Z M553 606 H579 V632 H553 Z M606 606 H632 V632 H606 Z M659 606 H686 V632 H659 Z M712 606 H739 V632 H712 Z M765 606 H792 V632 H765 Z M21 632 H48 V659 H21 Z M181 632 H207 V659 H181 Z
    M234 632 H260 V659 H234 Z M340 632 H367 V659 H340 Z M420 632 H500 V659 H420 Z M526 632 H579 V659 H526 Z M659 632 H686 V659 H659 Z M739 632 H765 V659 H739 Z M21 659 H48 V686 H21 Z M74 659 H154 V686 H74 Z
    M181 659 H207 V686 H181 Z M234 659 H340 V686 H234 Z M367 659 H420 V686 H367 Z M446 659 H500 V686 H446 Z M526 659 H686 V686 H526 Z M765 659 H792 V686 H765 Z M21 686 H48 V712 H21 Z M74 686 H154 V712 H74 Z
    M181 686 H207 V712 H181 Z M260 686 H313 V712 H260 Z M340 686 H367 V712 H340 Z M393 686 H446 V712 H393 Z M526 686 H553 V712 H526 Z M632 686 H659 V712 H632 Z M686 686 H712 V712 H686 Z M765 686 H792 V712 H765 Z
    M21 712 H48 V739 H21 Z M74 712 H154 V739 H74 Z M181 712 H207 V739 H181 Z M260 712 H287 V739 H260 Z M313 712 H473 V739 H313 Z M500 712 H526 V739 H500 Z M632 712 H659 V739 H632 Z M712 712 H792 V739 H712 Z
    M21 739 H48 V765 H21 Z M181 739 H207 V765 H181 Z M234 739 H287 V765 H234 Z M313 739 H340 V765 H313 Z M367 739 H393 V765 H367 Z M420 739 H553 V765 H420 Z M579 739 H632 V765 H579 Z M659 739 H686 V765 H659 Z
    M739 739 H792 V765 H739 Z M21 765 H207 V792 H21 Z M234 765 H260 V792 H234 Z M340 765 H393 V792 H340 Z M420 765 H526 V792 H420 Z M553 765 H579 V792 H553 Z M606 765 H632 V792 H606 Z M659 765 H686 V792 H659 Z
    M739 765 H765 V792 H739 Z
  "/>
</svg>